<mxfile host="app.diagrams.net" agent="Mozilla/5.0 (Macintosh; Intel Mac OS X 10_15_7) AppleWebKit/537.36 (KHTML, like Gecko) Chrome/130.0.0.0 Safari/537.36" version="24.8.1">
  <diagram name="Page-1" id="2O6jsqNbBZic9I3Afdn2">
    <mxGraphModel dx="1931" dy="1190" grid="1" gridSize="10" guides="1" tooltips="1" connect="1" arrows="1" fold="1" page="1" pageScale="1" pageWidth="850" pageHeight="1100" math="0" shadow="0">
      <root>
        <mxCell id="0" />
        <mxCell id="1" parent="0" />
        <mxCell id="5Wm0wxmgE54PNJz_v4CA-40" style="edgeStyle=orthogonalEdgeStyle;rounded=0;orthogonalLoop=1;jettySize=auto;html=1;" edge="1" parent="1" source="5Wm0wxmgE54PNJz_v4CA-5" target="5Wm0wxmgE54PNJz_v4CA-39">
          <mxGeometry relative="1" as="geometry" />
        </mxCell>
        <mxCell id="5Wm0wxmgE54PNJz_v4CA-41" value="紐づく&lt;div&gt;投票権&lt;/div&gt;&lt;div&gt;DAOメンバーシップ保持&lt;/div&gt;" style="edgeLabel;html=1;align=center;verticalAlign=middle;resizable=0;points=[];" vertex="1" connectable="0" parent="5Wm0wxmgE54PNJz_v4CA-40">
          <mxGeometry x="0.1487" y="1" relative="1" as="geometry">
            <mxPoint as="offset" />
          </mxGeometry>
        </mxCell>
        <mxCell id="5Wm0wxmgE54PNJz_v4CA-5" value="&lt;font style=&quot;font-size: 12px;&quot;&gt;6551&lt;/font&gt;&lt;div style=&quot;&quot;&gt;&lt;font style=&quot;font-size: 12px;&quot;&gt;マザーNFT&lt;/font&gt;&lt;/div&gt;" style="shape=cylinder3;whiteSpace=wrap;html=1;boundedLbl=1;backgroundOutline=1;size=15;" vertex="1" parent="1">
          <mxGeometry x="1230" y="620" width="160" height="162.5" as="geometry" />
        </mxCell>
        <mxCell id="5Wm0wxmgE54PNJz_v4CA-9" value="LINE in-app wallet" style="shape=cylinder3;whiteSpace=wrap;html=1;boundedLbl=1;backgroundOutline=1;size=15;" vertex="1" parent="1">
          <mxGeometry x="40" y="208.75" width="160" height="140" as="geometry" />
        </mxCell>
        <mxCell id="5Wm0wxmgE54PNJz_v4CA-19" value="保有する" style="edgeStyle=orthogonalEdgeStyle;rounded=0;orthogonalLoop=1;jettySize=auto;html=1;" edge="1" parent="1" source="5Wm0wxmgE54PNJz_v4CA-17" target="5Wm0wxmgE54PNJz_v4CA-5">
          <mxGeometry relative="1" as="geometry" />
        </mxCell>
        <mxCell id="5Wm0wxmgE54PNJz_v4CA-17" value="文化財オーナー" style="shape=umlActor;verticalLabelPosition=bottom;verticalAlign=top;html=1;outlineConnect=0;" vertex="1" parent="1">
          <mxGeometry x="1480" y="671.25" width="30" height="60" as="geometry" />
        </mxCell>
        <mxCell id="5Wm0wxmgE54PNJz_v4CA-27" style="edgeStyle=orthogonalEdgeStyle;rounded=0;orthogonalLoop=1;jettySize=auto;html=1;" edge="1" parent="1" source="5Wm0wxmgE54PNJz_v4CA-18" target="5Wm0wxmgE54PNJz_v4CA-22">
          <mxGeometry relative="1" as="geometry" />
        </mxCell>
        <mxCell id="5Wm0wxmgE54PNJz_v4CA-28" value="紹介" style="edgeLabel;html=1;align=center;verticalAlign=middle;resizable=0;points=[];" vertex="1" connectable="0" parent="5Wm0wxmgE54PNJz_v4CA-27">
          <mxGeometry x="0.1295" relative="1" as="geometry">
            <mxPoint as="offset" />
          </mxGeometry>
        </mxCell>
        <mxCell id="5Wm0wxmgE54PNJz_v4CA-36" style="edgeStyle=orthogonalEdgeStyle;rounded=0;orthogonalLoop=1;jettySize=auto;html=1;" edge="1" parent="1" source="5Wm0wxmgE54PNJz_v4CA-18">
          <mxGeometry relative="1" as="geometry">
            <mxPoint x="560" y="802.5" as="targetPoint" />
          </mxGeometry>
        </mxCell>
        <mxCell id="5Wm0wxmgE54PNJz_v4CA-18" value="保有者（観光客）" style="shape=umlActor;verticalLabelPosition=bottom;verticalAlign=top;html=1;outlineConnect=0;" vertex="1" parent="1">
          <mxGeometry x="420" y="772.5" width="30" height="60" as="geometry" />
        </mxCell>
        <mxCell id="5Wm0wxmgE54PNJz_v4CA-22" value="友人" style="shape=umlActor;verticalLabelPosition=bottom;verticalAlign=top;html=1;outlineConnect=0;" vertex="1" parent="1">
          <mxGeometry x="200" y="772.5" width="30" height="60" as="geometry" />
        </mxCell>
        <mxCell id="5Wm0wxmgE54PNJz_v4CA-33" value="LINEフロントエンド" style="swimlane;whiteSpace=wrap;html=1;" vertex="1" parent="1">
          <mxGeometry x="560" y="630" width="866.25" height="322.5" as="geometry" />
        </mxCell>
        <mxCell id="5Wm0wxmgE54PNJz_v4CA-2" value="シェア" style="ellipse;whiteSpace=wrap;html=1;" vertex="1" parent="5Wm0wxmgE54PNJz_v4CA-33">
          <mxGeometry x="30" y="40" width="140" height="50" as="geometry" />
        </mxCell>
        <mxCell id="5Wm0wxmgE54PNJz_v4CA-6" value="アップロード" style="ellipse;whiteSpace=wrap;html=1;" vertex="1" parent="5Wm0wxmgE54PNJz_v4CA-33">
          <mxGeometry x="30" y="100" width="140" height="50" as="geometry" />
        </mxCell>
        <mxCell id="5Wm0wxmgE54PNJz_v4CA-8" value="ミニNFT購入" style="ellipse;whiteSpace=wrap;html=1;" vertex="1" parent="5Wm0wxmgE54PNJz_v4CA-33">
          <mxGeometry x="30" y="250" width="140" height="50" as="geometry" />
        </mxCell>
        <mxCell id="5Wm0wxmgE54PNJz_v4CA-7" value="DAO活" style="ellipse;whiteSpace=wrap;html=1;" vertex="1" parent="5Wm0wxmgE54PNJz_v4CA-33">
          <mxGeometry x="90" y="170" width="80" height="55" as="geometry" />
        </mxCell>
        <mxCell id="5Wm0wxmgE54PNJz_v4CA-10" value="投票" style="ellipse;whiteSpace=wrap;html=1;" vertex="1" parent="5Wm0wxmgE54PNJz_v4CA-33">
          <mxGeometry x="5" y="150" width="45" height="25" as="geometry" />
        </mxCell>
        <mxCell id="5Wm0wxmgE54PNJz_v4CA-13" value="提案" style="ellipse;whiteSpace=wrap;html=1;" vertex="1" parent="5Wm0wxmgE54PNJz_v4CA-33">
          <mxGeometry x="5" y="185" width="45" height="25" as="geometry" />
        </mxCell>
        <mxCell id="5Wm0wxmgE54PNJz_v4CA-15" value="熟議" style="ellipse;whiteSpace=wrap;html=1;" vertex="1" parent="5Wm0wxmgE54PNJz_v4CA-33">
          <mxGeometry x="5" y="220" width="45" height="25" as="geometry" />
        </mxCell>
        <mxCell id="5Wm0wxmgE54PNJz_v4CA-12" style="edgeStyle=orthogonalEdgeStyle;rounded=0;orthogonalLoop=1;jettySize=auto;html=1;entryX=0.947;entryY=0.647;entryDx=0;entryDy=0;entryPerimeter=0;" edge="1" parent="5Wm0wxmgE54PNJz_v4CA-33" source="5Wm0wxmgE54PNJz_v4CA-7" target="5Wm0wxmgE54PNJz_v4CA-10">
          <mxGeometry relative="1" as="geometry" />
        </mxCell>
        <mxCell id="5Wm0wxmgE54PNJz_v4CA-14" style="edgeStyle=orthogonalEdgeStyle;rounded=0;orthogonalLoop=1;jettySize=auto;html=1;" edge="1" parent="5Wm0wxmgE54PNJz_v4CA-33" source="5Wm0wxmgE54PNJz_v4CA-7" target="5Wm0wxmgE54PNJz_v4CA-13">
          <mxGeometry relative="1" as="geometry" />
        </mxCell>
        <mxCell id="5Wm0wxmgE54PNJz_v4CA-16" style="edgeStyle=orthogonalEdgeStyle;rounded=0;orthogonalLoop=1;jettySize=auto;html=1;" edge="1" parent="5Wm0wxmgE54PNJz_v4CA-33" source="5Wm0wxmgE54PNJz_v4CA-7" target="5Wm0wxmgE54PNJz_v4CA-15">
          <mxGeometry relative="1" as="geometry" />
        </mxCell>
        <mxCell id="5Wm0wxmgE54PNJz_v4CA-39" value="6551ミニNFT" style="rounded=1;whiteSpace=wrap;html=1;" vertex="1" parent="5Wm0wxmgE54PNJz_v4CA-33">
          <mxGeometry x="250" y="37" width="170" height="133" as="geometry" />
        </mxCell>
        <mxCell id="5Wm0wxmgE54PNJz_v4CA-42" value="" style="ellipse;whiteSpace=wrap;html=1;aspect=fixed;" vertex="1" parent="5Wm0wxmgE54PNJz_v4CA-33">
          <mxGeometry x="300" y="-270" width="566.25" height="566.25" as="geometry" />
        </mxCell>
        <mxCell id="5Wm0wxmgE54PNJz_v4CA-38" value="&lt;font style=&quot;font-size: 12px;&quot;&gt;6551&lt;/font&gt;&lt;div style=&quot;&quot;&gt;&lt;font style=&quot;font-size: 12px;&quot;&gt;マザーNFT&lt;/font&gt;&lt;/div&gt;" style="shape=cylinder3;whiteSpace=wrap;html=1;boundedLbl=1;backgroundOutline=1;size=15;" vertex="1" parent="1">
          <mxGeometry x="260" y="490" width="110" height="110" as="geometry" />
        </mxCell>
      </root>
    </mxGraphModel>
  </diagram>
</mxfile>
